<svg width="690" height="134" viewBox="0 0 690 134" fill="black" xmlns="http://www.w3.org/2000/svg">
<path d="M45.456 101C36.608 101 28.7607 99.3673 21.914 96.102C15.0673 92.7313 9.69533 88.044 5.798 82.04C2.006 75.9307 0.11 68.8207 0.11 60.71C0.11 52.7047 1.74267 45.542 5.008 39.222C8.27333 32.7967 12.8027 27.7407 18.596 24.054C24.3893 20.3673 31.1307 18.524 38.82 18.524C47.1413 18.524 54.0407 20.3147 59.518 23.896C65.1007 27.4773 69.2613 32.3227 72 38.432C74.7387 44.436 76.108 51.1773 76.108 58.656C76.108 59.8147 76.0553 61.026 75.95 62.29C75.95 63.554 75.8447 64.66 75.634 65.608H15.594C16.1207 70.5587 17.7533 74.772 20.492 78.248C23.2307 81.6187 26.7067 84.1993 30.92 85.99C35.2387 87.6753 39.9787 88.518 45.14 88.518H66.154V101H45.456ZM15.436 55.338H61.414C61.414 53.3367 61.2033 51.23 60.782 49.018C60.3607 46.7007 59.6233 44.4887 58.57 42.382C57.5167 40.17 56.0947 38.2213 54.304 36.536C52.6187 34.7453 50.4593 33.3233 47.826 32.27C45.298 31.2167 42.296 30.69 38.82 30.69C35.1333 30.69 31.868 31.4273 29.024 32.902C26.2853 34.2713 23.9153 36.1673 21.914 38.59C19.9127 40.9073 18.3853 43.5407 17.332 46.49C16.2787 49.4393 15.6467 52.3887 15.436 55.338ZM96.2234 101V54.39C96.2234 47.2273 97.8034 40.96 100.963 35.588C104.229 30.216 108.705 26.0553 114.393 23.106C120.081 20.0513 126.559 18.524 133.827 18.524C141.201 18.524 147.679 20.0513 153.261 23.106C158.949 26.0553 163.373 30.216 166.533 35.588C169.799 40.96 171.431 47.2273 171.431 54.39V101H156.895V54.548C156.895 49.7027 155.789 45.542 153.577 42.066C151.471 38.4847 148.627 35.746 145.045 33.85C141.569 31.954 137.83 31.006 133.827 31.006C129.825 31.006 126.033 31.954 122.451 33.85C118.975 35.746 116.131 38.4847 113.919 42.066C111.813 45.542 110.759 49.7027 110.759 54.548V101H96.2234Z" fill="#143F6B"/>
<path d="M223.582 101C216.42 101 210.784 98.946 206.676 94.838C202.674 90.73 200.672 85.1473 200.672 78.09V0.195998H215.208V77.142C215.208 80.618 216.156 83.4093 218.052 85.516C220.054 87.5173 222.792 88.518 226.268 88.518H242.542V101H223.582ZM186.768 32.902V20.42H242.858V32.902H186.768Z" fill="#F55353"/>
<path d="M289.03 102.896C283.974 102.896 279.392 101.948 275.284 100.052C271.282 98.0507 268.069 94.996 265.646 90.888C263.224 86.6747 262.012 81.3027 262.012 74.772V20.42H276.548V77.3C276.548 80.144 277.128 82.5667 278.286 84.568C279.445 86.5693 280.972 88.044 282.868 88.992C284.764 89.94 286.766 90.414 288.872 90.414C290.979 90.414 292.98 89.94 294.876 88.992C296.772 87.9387 298.3 86.464 299.458 84.568C300.722 82.5667 301.354 80.144 301.354 77.3V46.016C301.354 39.8013 302.513 34.6927 304.83 30.69C307.148 26.582 310.308 23.5273 314.31 21.526C318.313 19.5247 322.842 18.524 327.898 18.524C332.954 18.524 337.484 19.5247 341.486 21.526C345.489 23.5273 348.649 26.582 350.966 30.69C353.284 34.6927 354.442 39.8013 354.442 46.016V77.3C354.442 80.144 355.022 82.5667 356.18 84.568C357.339 86.464 358.866 87.9387 360.762 88.992C362.658 89.94 364.712 90.414 366.924 90.414C369.136 90.414 371.138 89.94 372.928 88.992C374.719 87.9387 376.194 86.464 377.352 84.568C378.511 82.5667 379.09 80.144 379.09 77.3V20.42H393.784V74.772C393.784 81.3027 392.573 86.6747 390.15 90.888C387.728 94.996 384.462 98.0507 380.354 100.052C376.352 101.948 371.875 102.896 366.924 102.896C362.079 102.896 357.602 101.948 353.494 100.052C349.386 98.0507 346.068 94.996 343.54 90.888C341.118 86.6747 339.906 81.3027 339.906 74.772V43.804C339.906 40.8547 339.327 38.432 338.168 36.536C337.01 34.64 335.535 33.2707 333.744 32.428C331.954 31.48 330.005 31.006 327.898 31.006C325.792 31.006 323.79 31.48 321.894 32.428C320.104 33.2707 318.629 34.64 317.47 36.536C316.417 38.432 315.89 40.8547 315.89 43.804V74.772C315.89 81.3027 314.626 86.6747 312.098 90.888C309.676 94.996 306.41 98.0507 302.302 100.052C298.3 101.948 293.876 102.896 289.03 102.896Z" fill="#DA4B4B"/>
<path d="M449 133.074V102.264C443.102 101.421 437.835 99.4727 433.2 96.418C428.671 93.258 425.09 89.2027 422.456 84.252C419.823 79.196 418.506 73.4553 418.506 67.03V20.42H433.2V66.872C433.2 71.7173 434.254 75.9307 436.36 79.512C438.467 82.988 441.258 85.674 444.734 87.57C448.316 89.466 452.108 90.414 456.11 90.414C460.218 90.414 464.01 89.466 467.486 87.57C471.068 85.674 473.912 82.988 476.018 79.512C478.23 75.9307 479.336 71.7173 479.336 66.872V20.42H493.872V67.03C493.872 73.4553 492.556 79.1433 489.922 84.094C487.394 89.0447 483.813 93.1 479.178 96.26C474.649 99.3147 469.435 101.316 463.536 102.264V133.074H449Z" fill="#B94839"/>
<path d="M518.528 101V54.39C518.528 47.2273 520.108 40.96 523.268 35.588C526.533 30.216 531.01 26.0553 536.698 23.106C542.386 20.0513 548.864 18.524 556.132 18.524C563.505 18.524 569.983 20.0513 575.566 23.106C581.254 26.0553 585.678 30.216 588.838 35.588C592.103 40.96 593.736 47.2273 593.736 54.39V101H579.2V54.548C579.2 49.7027 578.094 45.542 575.882 42.066C573.775 38.4847 570.931 35.746 567.35 33.85C563.874 31.954 560.134 31.006 556.132 31.006C552.129 31.006 548.337 31.954 544.756 33.85C541.28 35.746 538.436 38.4847 536.224 42.066C534.117 45.542 533.064 49.7027 533.064 54.548V101H518.528Z" fill="#E5A033"/>
<path d="M659.317 101C650.469 101 642.622 99.3673 635.775 96.102C628.928 92.7313 623.556 88.044 619.659 82.04C615.867 75.9307 613.971 68.8207 613.971 60.71C613.971 52.7047 615.604 45.542 618.869 39.222C622.134 32.7967 626.664 27.7407 632.457 24.054C638.25 20.3673 644.992 18.524 652.681 18.524C661.002 18.524 667.902 20.3147 673.379 23.896C678.962 27.4773 683.122 32.3227 685.861 38.432C688.6 44.436 689.969 51.1773 689.969 58.656C689.969 59.8147 689.916 61.026 689.811 62.29C689.811 63.554 689.706 64.66 689.495 65.608H629.455C629.982 70.5587 631.614 74.772 634.353 78.248C637.092 81.6187 640.568 84.1993 644.781 85.99C649.1 87.6753 653.84 88.518 659.001 88.518H680.015V101H659.317ZM629.297 55.338H675.275C675.275 53.3367 675.064 51.23 674.643 49.018C674.222 46.7007 673.484 44.4887 672.431 42.382C671.378 40.17 669.956 38.2213 668.165 36.536C666.48 34.7453 664.32 33.3233 661.687 32.27C659.159 31.2167 656.157 30.69 652.681 30.69C648.994 30.69 645.729 31.4273 642.885 32.902C640.146 34.2713 637.776 36.1673 635.775 38.59C633.774 40.9073 632.246 43.5407 631.193 46.49C630.14 49.4393 629.508 52.3887 629.297 55.338Z" fill="#FEB139"/>
</svg>
