<svg width="305" height="812" viewBox="0 0 305 812" fill="none" xmlns="http://www.w3.org/2000/svg">
<path d="M2 0V353.817C2 384.193 26.6243 408.817 57 408.817H84.5H112C142.376 408.817 167 433.442 167 463.817V823.108C167 853.483 142.376 878.108 112 878.108H84.5H57C26.6243 878.108 2 902.732 2 933.108V1119" stroke="#143F6B" stroke-opacity="0.46" stroke-width="3"/>
<path d="M59 0V353.817C59 384.193 83.6243 408.817 114 408.817H116.518V408.817C146.055 408.817 170 432.762 170 462.299V824.626C170 854.163 146.055 878.108 116.518 878.108V878.108H114C83.6243 878.108 59 902.732 59 933.108V1119" stroke="#F55353" stroke-opacity="0.6" stroke-width="3"/>
<path d="M239 0V368.317C239 390.685 220.868 408.817 198.5 408.817V408.817V408.817C176.132 408.817 158 426.95 158 449.317V837.608C158 859.975 176.132 878.108 198.5 878.108V878.108V878.108C220.868 878.108 239 896.24 239 918.608V1119" stroke="#FEB139" stroke-opacity="0.5645" stroke-width="3"/>
<path d="M303 0V353.817C303 384.193 278.376 408.817 248 408.817H226.533H210C179.624 408.817 155 433.442 155 463.817V823.108C155 853.483 179.624 878.108 210 878.108H226.533H248C278.376 878.108 303 902.732 303 933.108V1119" stroke="#575757" stroke-opacity="0.6" stroke-width="3"/>
</svg>
