<svg width="305" height="812" viewBox="0 0 305 812" fill="none" xmlns="http://www.w3.org/2000/svg">
<path d="M2 -1.5V269.5C2 299.876 26.6243 324.5 57 324.5H238.5C268.876 324.5 293.5 349.124 293.5 379.5V521.5C293.5 551.876 268.876 576.5 238.5 576.5H57C26.6243 576.5 2 601.124 2 631.5V812" stroke="#F55353" stroke-opacity="0.31" stroke-width="3"/>
<path d="M12 -9.5V269C12 299.376 36.6243 324 67 324H248.5C278.876 324 303.5 348.624 303.5 379V521C303.5 551.376 278.876 576 248.5 576H67C36.6243 576 12 600.624 12 631V811.5" stroke="#143F6B" stroke-opacity="0.46" stroke-width="3"/>
</svg>
